<svg width="247" height="154" viewBox="0 0 247 154" fill="none" xmlns="http://www.w3.org/2000/svg">
<path d="M12.24 136.84H11.26C11.0467 136.84 10.92 136.773 10.88 136.64C10.8133 136.413 10.7467 135.973 10.68 135.32H7.32V146.56L7.56 146.6C8.17333 146.72 8.50667 146.787 8.56 146.8C8.69333 146.84 8.76 146.96 8.76 147.16V148H3.92V147.16C3.92 147.053 3.94667 146.967 4 146.9C4.06667 146.82 4.15333 146.773 4.26 146.76L5.36 146.54V135.3H1.98C1.9 136.047 1.84 136.493 1.8 136.64C1.76 136.773 1.62667 136.84 1.4 136.84H0.44V133.68H12.24V136.84ZM15.6087 137.72C16.1954 137.72 16.7488 137.82 17.2688 138.02C17.8021 138.22 18.2421 138.507 18.5888 138.88C18.9888 139.307 19.2821 139.78 19.4688 140.3C19.6821 140.9 19.7888 141.54 19.7888 142.22C19.7888 142.527 19.7621 142.713 19.7088 142.78C19.6421 142.873 19.5221 142.92 19.3488 142.92H12.6288C12.6288 143.56 12.7088 144.12 12.8688 144.6C13.0021 145.013 13.2288 145.4 13.5488 145.76C13.8421 146.093 14.1754 146.333 14.5488 146.48C14.9488 146.64 15.3754 146.72 15.8288 146.72C16.3088 146.72 16.6954 146.673 16.9888 146.58C17.2688 146.487 17.5488 146.373 17.8288 146.24C18.1221 146.093 18.3221 145.987 18.4288 145.92C18.6021 145.813 18.7354 145.76 18.8288 145.76C18.9754 145.76 19.0888 145.82 19.1688 145.94L19.6688 146.6C19.4821 146.84 19.2154 147.067 18.8688 147.28C18.4688 147.533 18.1421 147.7 17.8888 147.78C17.4888 147.913 17.1288 148.007 16.8088 148.06C16.4088 148.127 16.0421 148.16 15.7088 148.16C15.0154 148.16 14.3688 148.04 13.7688 147.8C13.1954 147.573 12.6821 147.22 12.2288 146.74C11.8021 146.3 11.4688 145.733 11.2288 145.04C10.9888 144.36 10.8688 143.587 10.8688 142.72C10.8688 142.027 10.9821 141.373 11.2088 140.76C11.4354 140.133 11.7488 139.6 12.1488 139.16C12.5621 138.707 13.0621 138.353 13.6488 138.1C14.2354 137.847 14.8888 137.72 15.6087 137.72ZM15.6488 139.02C14.7821 139.02 14.1088 139.267 13.6288 139.76C13.1354 140.28 12.8288 140.973 12.7088 141.84H18.2088C18.2088 141.427 18.1488 141.053 18.0288 140.72C17.8821 140.307 17.7221 140.007 17.5488 139.82C17.3221 139.58 17.0488 139.387 16.7288 139.24C16.4221 139.107 16.0554 139.04 15.6288 139.04L15.6488 139.02ZM25.3125 146.76C25.5258 146.8 25.6325 146.927 25.6325 147.14V148H20.9525V147.14C20.9525 146.927 21.0592 146.8 21.2725 146.76L22.3925 146.54V134.72C21.7792 134.6 21.4058 134.52 21.2725 134.48C21.0592 134.44 20.9525 134.32 20.9525 134.12V133.26H24.1925V146.52C24.8058 146.64 25.1792 146.72 25.3125 146.76ZM31.1133 146.76C31.3266 146.8 31.4333 146.927 31.4333 147.14V148H26.7533V147.14C26.7533 146.927 26.8599 146.8 27.0733 146.76L28.1933 146.54V134.72C27.5799 134.6 27.2066 134.52 27.0733 134.48C26.8599 134.44 26.7533 134.32 26.7533 134.12V133.26H29.9933V146.52C30.6066 146.64 30.9799 146.72 31.1133 146.76ZM41.8509 146.76C42.8509 146.76 43.7643 146.293 44.5909 145.36V139.36C44.4709 139.32 44.0909 139.24 43.4509 139.12C43.2509 139.08 43.1509 138.953 43.1509 138.74V137.88H46.3709V146.56C47.0109 146.68 47.3909 146.76 47.5109 146.8C47.7109 146.84 47.8109 146.96 47.8109 147.16V148.02H45.3109C45.0709 148.02 44.9109 147.893 44.8309 147.64L44.6909 146.56C43.7309 147.64 42.6109 148.18 41.3309 148.18C40.2509 148.18 39.4109 147.827 38.8109 147.12C38.2243 146.413 37.9309 145.487 37.9309 144.34V139.34C37.3176 139.22 36.9443 139.14 36.8109 139.1C36.5976 139.06 36.4909 138.933 36.4909 138.72V137.88H39.7309V144.32C39.7309 145.12 39.9043 145.72 40.2509 146.12C40.6109 146.533 41.1443 146.74 41.8509 146.74V146.76ZM52.9598 137.72C53.6532 137.72 54.5332 137.9 55.5998 138.26V140.86H54.8198C54.6332 140.86 54.5198 140.767 54.4798 140.58L54.3598 139.26C53.7332 139.113 53.2132 139.04 52.7998 139.04H52.7798C52.2332 139.04 51.7732 139.187 51.3998 139.48C51.0398 139.76 50.8598 140.067 50.8598 140.4C50.8598 140.747 50.9398 141 51.0998 141.16C51.3665 141.467 51.7532 141.7 52.2598 141.86L52.8598 142.04C52.9665 142.067 53.1798 142.133 53.4998 142.24L54.4598 142.6C54.7265 142.693 55.0065 142.867 55.2998 143.12C55.8465 143.547 56.1198 144.133 56.1198 144.88C56.1198 145.853 55.7932 146.627 55.1398 147.2C54.4332 147.827 53.5398 148.14 52.4598 148.14C51.3532 148.14 50.2598 147.96 49.1798 147.6V144.96H49.8998C50.0598 144.96 50.1598 145.04 50.1998 145.2L50.3198 146.48C50.8532 146.747 51.5398 146.88 52.3798 146.88C53.0198 146.88 53.5398 146.713 53.9398 146.38C54.2865 146.073 54.4598 145.733 54.4598 145.36C54.4598 144.973 54.3798 144.693 54.2198 144.52C54.0332 144.307 53.8332 144.147 53.6198 144.04C53.3265 143.893 53.0465 143.787 52.7798 143.72C51.7932 143.4 51.1732 143.187 50.9198 143.08C50.5998 142.933 50.2998 142.747 50.0198 142.52C49.4598 142.053 49.1798 141.427 49.1798 140.64C49.1798 139.84 49.4998 139.16 50.1398 138.6C50.8065 138.013 51.7465 137.72 52.9598 137.72ZM77.8398 138.76C77.8398 138.96 77.7398 139.08 77.5398 139.12C77.4998 139.12 77.4398 139.133 77.3598 139.16C77.2798 139.173 77.1732 139.193 77.0398 139.22C76.8932 139.247 76.7798 139.273 76.6998 139.3C76.6332 139.313 76.5798 139.32 76.5398 139.32L73.7198 148H72.3198C72.1332 148 72.0132 147.893 71.9598 147.68L69.7198 140.8C69.6798 140.693 69.6332 140.533 69.5798 140.32C69.5665 140.253 69.5532 140.187 69.5398 140.12C69.5265 140.04 69.5065 139.96 69.4798 139.88C69.4665 139.96 69.4532 140.04 69.4398 140.12C69.4265 140.2 69.4132 140.28 69.3998 140.36L69.2798 140.8L66.9998 147.66C66.9198 147.887 66.7865 148 66.5998 148H65.2398L62.4398 139.3C62.3732 139.3 62.2598 139.28 62.0998 139.24C61.9265 139.2 61.7865 139.167 61.6798 139.14C61.5732 139.113 61.4932 139.1 61.4398 139.1C61.2265 139.06 61.1198 138.933 61.1198 138.72V137.88H65.6398V138.72C65.6398 138.933 65.5398 139.06 65.3398 139.1C65.1798 139.14 65.0132 139.173 64.8398 139.2L64.2398 139.32L65.8398 144.76C65.8665 144.893 65.8932 145.013 65.9198 145.12C65.9465 145.227 65.9665 145.32 65.9798 145.4C66.0732 145.84 66.1198 146.087 66.1198 146.14C66.1598 145.927 66.2932 145.467 66.5198 144.76L68.6398 138.2C68.7198 137.96 68.8798 137.84 69.1198 137.84H69.8998C70.1532 137.84 70.3198 137.96 70.3998 138.2L72.4998 144.76L72.8598 146.12C72.9398 145.64 73.0398 145.187 73.1598 144.76L74.7998 139.32C74.7332 139.32 74.3465 139.247 73.6398 139.1C73.4265 139.06 73.3198 138.933 73.3198 138.72V137.88L77.8398 137.9V138.76ZM82.1427 139.24C83.116 138.227 84.196 137.72 85.3827 137.72C86.4627 137.72 87.3027 138.067 87.9027 138.76C88.4893 139.453 88.7827 140.387 88.7827 141.56V146.54C89.4227 146.66 89.8027 146.74 89.9227 146.78C90.1227 146.82 90.2227 146.947 90.2227 147.16V148H87.0027V141.56C87.0027 139.947 86.2893 139.14 84.8627 139.14C83.8893 139.14 82.9827 139.613 82.1427 140.56V146.56L82.3827 146.6L83.2627 146.78C83.476 146.82 83.5827 146.947 83.5827 147.16V148H78.9027V147.16C78.9027 146.947 79.0093 146.82 79.2227 146.78L80.3427 146.56V134.74C79.5827 134.62 79.1427 134.54 79.0227 134.5C78.8093 134.46 78.7027 134.333 78.7027 134.12V133.28H82.1427V139.24ZM100.163 146.72C100.256 146.733 100.329 146.78 100.383 146.86C100.436 146.927 100.463 147.007 100.463 147.1V147.96H98.3827C98.2627 147.96 98.1227 147.933 97.9627 147.88C97.8693 147.853 97.8027 147.747 97.7627 147.56L97.5627 146.6L96.7627 147.26C96.536 147.447 96.2693 147.607 95.9627 147.74C95.6693 147.873 95.376 147.973 95.0827 148.04C94.816 148.107 94.456 148.14 94.0027 148.14C93.6293 148.14 93.2693 148.08 92.9227 147.96C92.5093 147.813 92.2093 147.653 92.0227 147.48C91.7827 147.267 91.5827 146.987 91.4227 146.64C91.276 146.333 91.2027 145.933 91.2027 145.44C91.2027 145.013 91.3093 144.627 91.5227 144.28C91.7627 143.893 92.1227 143.56 92.6027 143.28C93.136 142.973 93.776 142.733 94.5227 142.56C95.296 142.387 96.2693 142.3 97.4427 142.3V141.52C97.4427 140.733 97.2693 140.133 96.9227 139.72C96.576 139.307 96.076 139.1 95.4227 139.1C94.996 139.1 94.6293 139.16 94.3227 139.28C93.976 139.413 93.7227 139.533 93.5627 139.64C93.4827 139.693 93.3893 139.753 93.2827 139.82C93.1893 139.873 93.0893 139.933 92.9827 140C92.836 140.107 92.6827 140.16 92.5227 140.16C92.376 140.16 92.2693 140.133 92.2027 140.08C92.1227 140.013 92.056 139.933 92.0027 139.84L91.6827 139.28C92.2027 138.773 92.8027 138.373 93.4827 138.08C94.096 137.813 94.816 137.68 95.6427 137.68C96.2427 137.68 96.7493 137.773 97.1627 137.96C97.616 138.16 97.9827 138.413 98.2627 138.72C98.556 139.027 98.7827 139.427 98.9427 139.92C99.0893 140.36 99.1627 140.88 99.1627 141.48V146.54C99.8027 146.673 100.136 146.747 100.163 146.76V146.72ZM97.4027 143.44C96.536 143.44 95.8427 143.487 95.3227 143.58C94.816 143.673 94.3493 143.813 93.9227 144C93.5493 144.173 93.2827 144.373 93.1227 144.6C92.9627 144.84 92.8827 145.093 92.8827 145.36C92.8827 145.573 92.9293 145.8 93.0227 146.04C93.1027 146.24 93.2227 146.4 93.3827 146.52C93.5427 146.64 93.716 146.727 93.9027 146.78C94.1293 146.847 94.3493 146.88 94.5627 146.88C94.8293 146.88 95.1093 146.847 95.4027 146.78C95.6693 146.713 95.916 146.627 96.1427 146.52C96.3427 146.427 96.5627 146.28 96.8027 146.08C96.936 145.973 97.136 145.787 97.4027 145.52V143.44ZM104.711 148.16C103.938 148.16 103.324 147.933 102.871 147.48C102.444 147.053 102.231 146.413 102.231 145.56V139.36H101.011C100.891 139.36 100.798 139.333 100.731 139.28C100.664 139.227 100.631 139.127 100.631 138.98V138.28L102.291 138.06L102.691 134.92C102.691 134.813 102.731 134.733 102.811 134.68C102.878 134.627 102.971 134.6 103.091 134.6H103.991V138.08H106.891V139.38H103.991V145.46C103.991 145.9 104.091 146.22 104.291 146.42C104.491 146.62 104.764 146.72 105.111 146.72C105.258 146.72 105.424 146.693 105.611 146.64C105.731 146.6 105.851 146.547 105.971 146.48C106.011 146.453 106.051 146.427 106.091 146.4C106.131 146.373 106.171 146.347 106.211 146.32C106.318 146.267 106.384 146.24 106.411 146.24C106.504 146.24 106.584 146.293 106.651 146.4L107.171 147.24C106.811 147.547 106.438 147.773 106.051 147.92C105.611 148.08 105.164 148.16 104.711 148.16ZM123.454 138.72C123.454 138.92 123.354 139.04 123.154 139.08C123.1 139.08 123.02 139.093 122.914 139.12C122.82 139.147 122.72 139.173 122.614 139.2L122.114 139.3L117.094 150.98C117.04 151.113 116.954 151.22 116.834 151.3C116.727 151.38 116.6 151.42 116.454 151.42H115.134L116.974 147.4L113.414 139.28C113.014 139.213 112.714 139.147 112.514 139.08C112.314 139.04 112.214 138.92 112.214 138.72V137.86H116.754V138.72C116.754 138.92 116.654 139.04 116.454 139.08C116.32 139.12 115.947 139.2 115.334 139.32L117.594 144.6C117.66 144.747 117.714 144.92 117.754 145.12C117.807 145.32 117.84 145.453 117.854 145.52C117.947 145.2 118.054 144.893 118.174 144.6L120.354 139.32C120.354 139.32 119.987 139.247 119.254 139.1C119.067 139.06 118.974 138.933 118.974 138.72V137.88H122.734L123.454 137.86V138.72ZM128.874 137.72C129.607 137.72 130.274 137.84 130.874 138.08C131.46 138.32 131.974 138.667 132.414 139.12C132.827 139.547 133.147 140.093 133.374 140.76C133.6 141.413 133.714 142.133 133.714 142.92C133.714 143.707 133.6 144.427 133.374 145.08C133.147 145.747 132.827 146.293 132.414 146.72C131.974 147.173 131.46 147.52 130.874 147.76C130.274 148 129.607 148.12 128.874 148.12C128.14 148.12 127.474 148 126.874 147.76C126.287 147.52 125.774 147.173 125.334 146.72C124.934 146.307 124.607 145.76 124.354 145.08C124.14 144.507 124.034 143.787 124.034 142.92C124.034 142.053 124.14 141.333 124.354 140.76C124.607 140.08 124.934 139.533 125.334 139.12C125.774 138.667 126.287 138.32 126.874 138.08C127.474 137.84 128.14 137.72 128.874 137.72ZM128.874 146.76C129.9 146.76 130.647 146.427 131.114 145.76C131.607 145.067 131.854 144.127 131.854 142.94C131.854 141.753 131.607 140.813 131.114 140.12C130.647 139.453 129.9 139.12 128.874 139.12C128.354 139.12 127.914 139.2 127.554 139.36C127.207 139.52 126.9 139.773 126.634 140.12C126.38 140.467 126.194 140.867 126.074 141.32C125.94 141.853 125.874 142.4 125.874 142.96C125.874 143.493 125.94 144.027 126.074 144.56C126.194 145.013 126.38 145.413 126.634 145.76C126.86 146.067 127.167 146.307 127.554 146.48C127.98 146.667 128.42 146.76 128.874 146.76ZM139.8 146.76C140.8 146.76 141.713 146.293 142.54 145.36V139.36C142.42 139.32 142.04 139.24 141.4 139.12C141.2 139.08 141.1 138.953 141.1 138.74V137.88H144.32V146.56C144.96 146.68 145.34 146.76 145.46 146.8C145.66 146.84 145.76 146.96 145.76 147.16V148.02H143.26C143.02 148.02 142.86 147.893 142.78 147.64L142.64 146.56C141.68 147.64 140.56 148.18 139.28 148.18C138.2 148.18 137.36 147.827 136.76 147.12C136.173 146.413 135.88 145.487 135.88 144.34V139.34C135.267 139.22 134.893 139.14 134.76 139.1C134.547 139.06 134.44 138.933 134.44 138.72V137.88H137.68V144.32C137.68 145.12 137.853 145.72 138.2 146.12C138.56 146.533 139.093 146.74 139.8 146.74V146.76ZM167.586 138.76C167.586 138.96 167.486 139.08 167.286 139.12C167.246 139.12 167.186 139.133 167.106 139.16C167.026 139.173 166.919 139.193 166.786 139.22C166.639 139.247 166.526 139.273 166.446 139.3C166.379 139.313 166.326 139.32 166.286 139.32L163.466 148H162.066C161.879 148 161.759 147.893 161.706 147.68L159.466 140.8C159.426 140.693 159.379 140.533 159.326 140.32C159.313 140.253 159.299 140.187 159.286 140.12C159.273 140.04 159.253 139.96 159.226 139.88C159.213 139.96 159.199 140.04 159.186 140.12C159.173 140.2 159.159 140.28 159.146 140.36L159.026 140.8L156.746 147.66C156.666 147.887 156.533 148 156.346 148H154.986L152.186 139.3C152.119 139.3 152.006 139.28 151.846 139.24C151.673 139.2 151.533 139.167 151.426 139.14C151.319 139.113 151.239 139.1 151.186 139.1C150.973 139.06 150.866 138.933 150.866 138.72V137.88H155.386V138.72C155.386 138.933 155.286 139.06 155.086 139.1C154.926 139.14 154.759 139.173 154.586 139.2L153.986 139.32L155.586 144.76C155.613 144.893 155.639 145.013 155.666 145.12C155.693 145.227 155.713 145.32 155.726 145.4C155.819 145.84 155.866 146.087 155.866 146.14C155.906 145.927 156.039 145.467 156.266 144.76L158.386 138.2C158.466 137.96 158.626 137.84 158.866 137.84H159.646C159.899 137.84 160.066 137.96 160.146 138.2L162.246 144.76L162.606 146.12C162.686 145.64 162.786 145.187 162.906 144.76L164.546 139.32C164.479 139.32 164.093 139.247 163.386 139.1C163.173 139.06 163.066 138.933 163.066 138.72V137.88L167.586 137.9V138.76ZM177.409 146.72C177.502 146.733 177.575 146.78 177.629 146.86C177.682 146.927 177.709 147.007 177.709 147.1V147.96H175.629C175.509 147.96 175.369 147.933 175.209 147.88C175.115 147.853 175.049 147.747 175.009 147.56L174.809 146.6L174.009 147.26C173.782 147.447 173.515 147.607 173.209 147.74C172.915 147.873 172.622 147.973 172.329 148.04C172.062 148.107 171.702 148.14 171.249 148.14C170.875 148.14 170.515 148.08 170.169 147.96C169.755 147.813 169.455 147.653 169.269 147.48C169.029 147.267 168.829 146.987 168.669 146.64C168.522 146.333 168.449 145.933 168.449 145.44C168.449 145.013 168.555 144.627 168.769 144.28C169.009 143.893 169.369 143.56 169.849 143.28C170.382 142.973 171.022 142.733 171.769 142.56C172.542 142.387 173.515 142.3 174.689 142.3V141.52C174.689 140.733 174.515 140.133 174.169 139.72C173.822 139.307 173.322 139.1 172.669 139.1C172.242 139.1 171.875 139.16 171.569 139.28C171.222 139.413 170.969 139.533 170.809 139.64C170.729 139.693 170.635 139.753 170.529 139.82C170.435 139.873 170.335 139.933 170.229 140C170.082 140.107 169.929 140.16 169.769 140.16C169.622 140.16 169.515 140.133 169.449 140.08C169.369 140.013 169.302 139.933 169.249 139.84L168.929 139.28C169.449 138.773 170.049 138.373 170.729 138.08C171.342 137.813 172.062 137.68 172.889 137.68C173.489 137.68 173.995 137.773 174.409 137.96C174.862 138.16 175.229 138.413 175.509 138.72C175.802 139.027 176.029 139.427 176.189 139.92C176.335 140.36 176.409 140.88 176.409 141.48V146.54C177.049 146.673 177.382 146.747 177.409 146.76V146.72ZM174.649 143.44C173.782 143.44 173.089 143.487 172.569 143.58C172.062 143.673 171.595 143.813 171.169 144C170.795 144.173 170.529 144.373 170.369 144.6C170.209 144.84 170.129 145.093 170.129 145.36C170.129 145.573 170.175 145.8 170.269 146.04C170.349 146.24 170.469 146.4 170.629 146.52C170.789 146.64 170.962 146.727 171.149 146.78C171.375 146.847 171.595 146.88 171.809 146.88C172.075 146.88 172.355 146.847 172.649 146.78C172.915 146.713 173.162 146.627 173.389 146.52C173.589 146.427 173.809 146.28 174.049 146.08C174.182 145.973 174.382 145.787 174.649 145.52V143.44ZM182.023 139.32C183.023 138.24 184.143 137.7 185.383 137.7C186.476 137.7 187.316 138.053 187.903 138.76C188.476 139.453 188.763 140.38 188.763 141.54V146.52C189.403 146.64 189.783 146.72 189.903 146.76C190.116 146.8 190.223 146.927 190.223 147.14V148H186.983V141.56C186.983 139.933 186.276 139.12 184.863 139.12C183.863 139.12 182.943 139.593 182.103 140.54V146.54C182.156 146.54 182.543 146.62 183.263 146.78C183.463 146.82 183.563 146.947 183.563 147.16V148H178.903V147.16C178.903 146.947 178.996 146.82 179.183 146.78L180.343 146.56V139.34C179.676 139.22 179.289 139.14 179.183 139.1C178.996 139.06 178.903 138.933 178.903 138.72V137.88H181.383C181.623 137.88 181.783 138 181.863 138.24L182.023 139.34V139.32ZM195.063 148.16C194.289 148.16 193.676 147.933 193.223 147.48C192.796 147.053 192.583 146.413 192.583 145.56V139.36H191.363C191.243 139.36 191.149 139.333 191.083 139.28C191.016 139.227 190.983 139.127 190.983 138.98V138.28L192.643 138.06L193.043 134.92C193.043 134.813 193.083 134.733 193.163 134.68C193.229 134.627 193.323 134.6 193.443 134.6H194.343V138.08H197.243V139.38H194.343V145.46C194.343 145.9 194.443 146.22 194.643 146.42C194.843 146.62 195.116 146.72 195.463 146.72C195.609 146.72 195.776 146.693 195.963 146.64C196.083 146.6 196.203 146.547 196.323 146.48C196.363 146.453 196.403 146.427 196.443 146.4C196.483 146.373 196.523 146.347 196.563 146.32C196.669 146.267 196.736 146.24 196.763 146.24C196.856 146.24 196.936 146.293 197.003 146.4L197.523 147.24C197.163 147.547 196.789 147.773 196.403 147.92C195.963 148.08 195.516 148.16 195.063 148.16ZM206.625 148.16C205.852 148.16 205.238 147.933 204.785 147.48C204.358 147.053 204.145 146.413 204.145 145.56V139.36H202.925C202.805 139.36 202.712 139.333 202.645 139.28C202.578 139.227 202.545 139.127 202.545 138.98V138.28L204.205 138.06L204.605 134.92C204.605 134.813 204.645 134.733 204.725 134.68C204.792 134.627 204.885 134.6 205.005 134.6H205.905V138.08H208.805V139.38H205.905V145.46C205.905 145.9 206.005 146.22 206.205 146.42C206.405 146.62 206.678 146.72 207.025 146.72C207.172 146.72 207.338 146.693 207.525 146.64C207.645 146.6 207.765 146.547 207.885 146.48C207.925 146.453 207.965 146.427 208.005 146.4C208.045 146.373 208.085 146.347 208.125 146.32C208.232 146.267 208.298 146.24 208.325 146.24C208.418 146.24 208.498 146.293 208.565 146.4L209.085 147.24C208.725 147.547 208.352 147.773 207.965 147.92C207.525 148.08 207.078 148.16 206.625 148.16ZM214.831 137.72C215.564 137.72 216.231 137.84 216.831 138.08C217.417 138.32 217.931 138.667 218.371 139.12C218.784 139.547 219.104 140.093 219.331 140.76C219.557 141.413 219.671 142.133 219.671 142.92C219.671 143.707 219.557 144.427 219.331 145.08C219.104 145.747 218.784 146.293 218.371 146.72C217.931 147.173 217.417 147.52 216.831 147.76C216.231 148 215.564 148.12 214.831 148.12C214.097 148.12 213.431 148 212.831 147.76C212.244 147.52 211.731 147.173 211.291 146.72C210.891 146.307 210.564 145.76 210.311 145.08C210.097 144.507 209.991 143.787 209.991 142.92C209.991 142.053 210.097 141.333 210.311 140.76C210.564 140.08 210.891 139.533 211.291 139.12C211.731 138.667 212.244 138.32 212.831 138.08C213.431 137.84 214.097 137.72 214.831 137.72ZM214.831 146.76C215.857 146.76 216.604 146.427 217.071 145.76C217.564 145.067 217.811 144.127 217.811 142.94C217.811 141.753 217.564 140.813 217.071 140.12C216.604 139.453 215.857 139.12 214.831 139.12C214.311 139.12 213.871 139.2 213.511 139.36C213.164 139.52 212.857 139.773 212.591 140.12C212.337 140.467 212.151 140.867 212.031 141.32C211.897 141.853 211.831 142.4 211.831 142.96C211.831 143.493 211.897 144.027 212.031 144.56C212.151 145.013 212.337 145.413 212.591 145.76C212.817 146.067 213.124 146.307 213.511 146.48C213.937 146.667 214.377 146.76 214.831 146.76ZM229.254 137.68C230.374 137.68 231.294 138.08 232.014 138.88V134.72L230.674 134.48C230.474 134.44 230.374 134.32 230.374 134.12V133.24H233.774V146.52C234.441 146.64 234.827 146.72 234.934 146.76C235.121 146.8 235.214 146.92 235.214 147.12V148H232.734C232.494 148 232.334 147.873 232.254 147.62L232.094 146.4C231.147 147.547 230.014 148.12 228.694 148.12C227.507 148.12 226.574 147.68 225.894 146.8C225.201 145.88 224.854 144.6 224.854 142.96C224.854 141.427 225.247 140.173 226.034 139.2C226.847 138.187 227.921 137.68 229.254 137.68ZM229.294 146.7C230.347 146.7 231.254 146.187 232.014 145.16V140.28C231.414 139.48 230.634 139.08 229.674 139.08C228.701 139.08 227.961 139.413 227.454 140.08C226.947 140.747 226.694 141.707 226.694 142.96C226.694 144.867 227.187 146.04 228.174 146.48C228.481 146.613 228.847 146.68 229.274 146.68L229.294 146.7ZM240.983 137.72C241.716 137.72 242.383 137.84 242.983 138.08C243.57 138.32 244.083 138.667 244.523 139.12C244.936 139.547 245.256 140.093 245.483 140.76C245.71 141.413 245.823 142.133 245.823 142.92C245.823 143.707 245.71 144.427 245.483 145.08C245.256 145.747 244.936 146.293 244.523 146.72C244.083 147.173 243.57 147.52 242.983 147.76C242.383 148 241.716 148.12 240.983 148.12C240.25 148.12 239.583 148 238.983 147.76C238.396 147.52 237.883 147.173 237.443 146.72C237.043 146.307 236.716 145.76 236.463 145.08C236.25 144.507 236.143 143.787 236.143 142.92C236.143 142.053 236.25 141.333 236.463 140.76C236.716 140.08 237.043 139.533 237.443 139.12C237.883 138.667 238.396 138.32 238.983 138.08C239.583 137.84 240.25 137.72 240.983 137.72ZM240.983 146.76C242.01 146.76 242.756 146.427 243.223 145.76C243.716 145.067 243.963 144.127 243.963 142.94C243.963 141.753 243.716 140.813 243.223 140.12C242.756 139.453 242.01 139.12 240.983 139.12C240.463 139.12 240.023 139.2 239.663 139.36C239.316 139.52 239.01 139.773 238.743 140.12C238.49 140.467 238.303 140.867 238.183 141.32C238.05 141.853 237.983 142.4 237.983 142.96C237.983 143.493 238.05 144.027 238.183 144.56C238.303 145.013 238.49 145.413 238.743 145.76C238.97 146.067 239.276 146.307 239.663 146.48C240.09 146.667 240.53 146.76 240.983 146.76Z" fill="#0D606F"/>
<rect x="73" width="100" height="100" rx="16" fill="#F2785C"/>
<path d="M108.417 69.7548C106.483 69.7548 104.628 68.957 103.261 67.537C101.893 66.1169 101.125 64.1909 101.125 62.1827C101.125 60.1744 101.893 58.2484 103.261 56.8284C104.628 55.4084 106.483 54.6106 108.417 54.6106C110.351 54.6106 112.205 55.4084 113.573 56.8284C114.94 58.2484 115.708 60.1744 115.708 62.1827C115.708 64.1909 114.94 66.1169 113.573 67.537C112.205 68.957 110.351 69.7548 108.417 69.7548ZM108.417 51.3654C105.654 51.3654 103.004 52.5051 101.051 54.5337C99.0975 56.5623 98 59.3138 98 62.1827C98 65.0516 99.0975 67.803 101.051 69.8317C103.004 71.8603 105.654 73 108.417 73C111.179 73 113.829 71.8603 115.782 69.8317C117.736 67.803 118.833 65.0516 118.833 62.1827C118.833 59.3138 117.736 56.5623 115.782 54.5337C113.829 52.5051 111.179 51.3654 108.417 51.3654ZM128.833 47.0385H137.583V43.1442H130.917L126.875 36.0697C126.271 34.988 125.083 34.274 123.833 34.274C122.854 34.274 121.958 34.6851 121.333 35.3558L113.625 43.3389C112.979 44.0096 112.583 44.875 112.583 45.9567C112.583 47.3197 113.271 48.4663 114.354 49.137L121.333 53.5288V64.3462H125.083V50.2837L120.396 46.7139L125.229 41.6298L128.833 47.0385ZM137.583 69.7548C135.649 69.7548 133.795 68.957 132.427 67.537C131.06 66.1169 130.292 64.1909 130.292 62.1827C130.292 60.1744 131.06 58.2484 132.427 56.8284C133.795 55.4084 135.649 54.6106 137.583 54.6106C139.517 54.6106 141.372 55.4084 142.739 56.8284C144.107 58.2484 144.875 60.1744 144.875 62.1827C144.875 64.1909 144.107 66.1169 142.739 67.537C141.372 68.957 139.517 69.7548 137.583 69.7548ZM137.583 51.3654C134.821 51.3654 132.171 52.5051 130.218 54.5337C128.264 56.5623 127.167 59.3138 127.167 62.1827C127.167 65.0516 128.264 67.803 130.218 69.8317C132.171 71.8603 134.821 73 137.583 73C138.951 73 140.306 72.7202 141.57 72.1766C142.833 71.633 143.982 70.8362 144.949 69.8317C145.916 68.8272 146.684 67.6347 147.207 66.3223C147.731 65.0099 148 63.6032 148 62.1827C148 60.7621 147.731 59.3555 147.207 58.0431C146.684 56.7307 145.916 55.5382 144.949 54.5337C143.982 53.5292 142.833 52.7324 141.57 52.1888C140.306 51.6452 138.951 51.3654 137.583 51.3654ZM131.333 35.7885C133.417 35.7885 135.083 34.0577 135.083 31.8942C135.083 29.7308 133.417 28 131.333 28C129.25 28 127.583 29.7308 127.583 31.8942C127.583 34.0577 129.25 35.7885 131.333 35.7885Z" fill="white"/>
</svg>
