<?xml version="1.0" standalone="no"?>
<!DOCTYPE svg PUBLIC "-//W3C//DTD SVG 20010904//EN"
 "http://www.w3.org/TR/2001/REC-SVG-20010904/DTD/svg10.dtd">
<svg version="1.0" xmlns="http://www.w3.org/2000/svg"
 width="126.000000pt" height="126.000000pt" viewBox="0 0 126.000000 126.000000"
 preserveAspectRatio="xMidYMid meet">

<g transform="translate(0.000000,126.000000) scale(0.100000,-0.100000)"
fill="#000000" stroke="none">
<path d="M480 1225 c-173 -44 -324 -161 -404 -314 -54 -105 -70 -171 -70 -296
0 -184 54 -316 184 -445 80 -80 207 -155 252 -148 21 3 23 9 26 71 l3 67 -63
0 c-81 0 -119 22 -153 89 -14 28 -39 60 -55 73 -36 26 -39 48 -7 48 33 0 81
-33 105 -72 25 -40 59 -58 110 -58 48 0 60 9 82 58 l18 40 -40 6 c-111 18
-195 86 -223 180 -27 91 -17 201 24 265 11 17 15 43 13 85 -2 34 1 74 7 89 10
26 14 28 44 22 17 -4 57 -20 88 -36 48 -24 61 -26 95 -19 21 5 73 10 114 10
41 0 93 -5 114 -10 34 -7 47 -5 95 19 72 36 116 46 127 29 5 -7 9 -48 10 -90
1 -49 7 -86 16 -100 40 -63 50 -174 23 -264 -28 -94 -112 -162 -223 -180 l-41
-6 17 -32 c12 -22 18 -65 22 -156 5 -121 6 -125 28 -128 12 -2 57 14 100 34
144 71 268 223 318 389 25 82 25 258 0 340 -59 197 -209 355 -399 423 -89 31
-268 40 -357 17z"/>
</g>
</svg>
