<svg width="317" height="154" viewBox="0 0 317 154" fill="none" xmlns="http://www.w3.org/2000/svg">
<path d="M22.16 134.54C22.16 134.753 22.0533 134.88 21.84 134.92L20.84 135.14L16.84 148H15.08L11.46 137.08C11.3933 136.92 11.3267 136.68 11.26 136.36L11.16 136.72C11.1467 136.773 11.1333 136.833 11.12 136.9C11.1067 136.967 11.0933 137.027 11.08 137.08L7.44 148H5.68L1.68 135.12C1.16 135.013 0.826667 134.933 0.68 134.88C0.466667 134.84 0.36 134.72 0.36 134.52V133.66H5.24V134.52C5.24 134.72 5.13333 134.84 4.92 134.88C4.62667 134.947 4.38667 135 4.2 135.04C4.01333 135.08 3.88 135.107 3.8 135.12L6.44 144.08C6.58667 144.613 6.68 145.027 6.72 145.32C6.84 144.747 6.94 144.333 7.02 144.08L10.4 134.12C10.44 134.013 10.52 133.907 10.64 133.8C10.7733 133.693 10.9133 133.64 11.06 133.64H11.62C11.94 133.64 12.16 133.8 12.28 134.12L15.64 144.08C15.7867 144.533 15.8933 144.933 15.96 145.28L16.06 144.64L16.18 144.08L18.84 135.12C18.76 135.12 18.5267 135.073 18.14 134.98L17.72 134.9C17.5067 134.86 17.4 134.733 17.4 134.52V133.68H22.16V134.54ZM26.2533 137.72C26.8399 137.72 27.3933 137.82 27.9133 138.02C28.4466 138.22 28.8866 138.507 29.2333 138.88C29.6333 139.307 29.9266 139.78 30.1133 140.3C30.3266 140.9 30.4333 141.54 30.4333 142.22C30.4333 142.527 30.4066 142.713 30.3533 142.78C30.2866 142.873 30.1666 142.92 29.9933 142.92H23.2733C23.2733 143.56 23.3533 144.12 23.5133 144.6C23.6466 145.013 23.8733 145.4 24.1933 145.76C24.4866 146.093 24.8199 146.333 25.1933 146.48C25.5933 146.64 26.0199 146.72 26.4733 146.72C26.9533 146.72 27.3399 146.673 27.6333 146.58C27.9133 146.487 28.1933 146.373 28.4733 146.24C28.7666 146.093 28.9666 145.987 29.0733 145.92C29.2466 145.813 29.3799 145.76 29.4733 145.76C29.6199 145.76 29.7333 145.82 29.8133 145.94L30.3133 146.6C30.1266 146.84 29.8599 147.067 29.5133 147.28C29.1133 147.533 28.7866 147.7 28.5333 147.78C28.1333 147.913 27.7733 148.007 27.4533 148.06C27.0533 148.127 26.6866 148.16 26.3533 148.16C25.6599 148.16 25.0133 148.04 24.4133 147.8C23.8399 147.573 23.3266 147.22 22.8733 146.74C22.4466 146.3 22.1133 145.733 21.8733 145.04C21.6333 144.36 21.5133 143.587 21.5133 142.72C21.5133 142.027 21.6266 141.373 21.8533 140.76C22.0799 140.133 22.3933 139.6 22.7933 139.16C23.2066 138.707 23.7066 138.353 24.2933 138.1C24.8799 137.847 25.5333 137.72 26.2533 137.72ZM26.2933 139.02C25.4266 139.02 24.7533 139.267 24.2733 139.76C23.7799 140.28 23.4733 140.973 23.3533 141.84H28.8533C28.8533 141.427 28.7933 141.053 28.6733 140.72C28.5266 140.307 28.3666 140.007 28.1933 139.82C27.9666 139.58 27.6933 139.387 27.3733 139.24C27.0666 139.107 26.6999 139.04 26.2733 139.04L26.2933 139.02ZM52.2539 138.76C52.2539 138.96 52.1539 139.08 51.9539 139.12C51.9139 139.12 51.8539 139.133 51.7739 139.16C51.6939 139.173 51.5872 139.193 51.4539 139.22C51.3072 139.247 51.1939 139.273 51.1139 139.3C51.0472 139.313 50.9939 139.32 50.9539 139.32L48.1339 148H46.7339C46.5472 148 46.4272 147.893 46.3739 147.68L44.1339 140.8C44.0939 140.693 44.0472 140.533 43.9939 140.32C43.9806 140.253 43.9672 140.187 43.9539 140.12C43.9406 140.04 43.9206 139.96 43.8939 139.88C43.8806 139.96 43.8672 140.04 43.8539 140.12C43.8406 140.2 43.8272 140.28 43.8139 140.36L43.6939 140.8L41.4139 147.66C41.3339 147.887 41.2006 148 41.0139 148H39.6539L36.8539 139.3C36.7872 139.3 36.6739 139.28 36.5139 139.24C36.3406 139.2 36.2006 139.167 36.0939 139.14C35.9872 139.113 35.9072 139.1 35.8539 139.1C35.6406 139.06 35.5339 138.933 35.5339 138.72V137.88H40.0539V138.72C40.0539 138.933 39.9539 139.06 39.7539 139.1C39.5939 139.14 39.4272 139.173 39.2539 139.2L38.6539 139.32L40.2539 144.76C40.2806 144.893 40.3072 145.013 40.3339 145.12C40.3606 145.227 40.3806 145.32 40.3939 145.4C40.4872 145.84 40.5339 146.087 40.5339 146.14C40.5739 145.927 40.7072 145.467 40.9339 144.76L43.0539 138.2C43.1339 137.96 43.2939 137.84 43.5339 137.84H44.3139C44.5672 137.84 44.7339 137.96 44.8139 138.2L46.9139 144.76L47.2739 146.12C47.3539 145.64 47.4539 145.187 47.5739 144.76L49.2139 139.32C49.1472 139.32 48.7606 139.247 48.0539 139.1C47.8406 139.06 47.7339 138.933 47.7339 138.72V137.88L52.2539 137.9V138.76ZM54.7167 135.58C54.6101 135.473 54.5167 135.34 54.4367 135.18C54.3701 135.047 54.3367 134.887 54.3367 134.7C54.3367 134.5 54.3701 134.333 54.4367 134.2C54.5301 134.013 54.6234 133.873 54.7167 133.78C54.8234 133.673 54.9567 133.58 55.1167 133.5C55.2501 133.433 55.4101 133.4 55.5967 133.4C55.7834 133.4 55.9434 133.433 56.0767 133.5C56.2367 133.58 56.3701 133.673 56.4767 133.78C56.5701 133.873 56.6634 134.013 56.7567 134.2C56.8367 134.36 56.8767 134.527 56.8767 134.7C56.8767 134.86 56.8367 135.02 56.7567 135.18C56.6767 135.34 56.5834 135.473 56.4767 135.58C56.3701 135.687 56.2367 135.78 56.0767 135.86C55.9434 135.927 55.7834 135.96 55.5967 135.96C55.4101 135.96 55.2501 135.927 55.1167 135.86C54.9567 135.78 54.8234 135.687 54.7167 135.58ZM57.6167 146.76C57.7101 146.773 57.7834 146.82 57.8367 146.9C57.8901 146.967 57.9167 147.047 57.9167 147.14V148H53.2567V147.14C53.2567 147.047 53.2834 146.967 53.3367 146.9C53.3901 146.82 53.4634 146.773 53.5567 146.76L54.7167 146.54V139.32L53.5567 139.1C53.4634 139.087 53.3901 139.047 53.3367 138.98C53.2834 138.9 53.2567 138.813 53.2567 138.72V137.88H56.4767V146.54L57.6167 146.76ZM63.418 146.76C63.6313 146.8 63.738 146.927 63.738 147.14V148H59.058V147.14C59.058 146.927 59.1646 146.8 59.378 146.76L60.498 146.54V134.72C59.8846 134.6 59.5113 134.52 59.378 134.48C59.1646 134.44 59.058 134.32 59.058 134.12V133.26H62.298V146.52C62.9113 146.64 63.2846 146.72 63.418 146.76ZM69.2188 146.76C69.4321 146.8 69.5388 146.927 69.5388 147.14V148H64.8588V147.14C64.8588 146.927 64.9654 146.8 65.1788 146.76L66.2988 146.54V134.72C65.6854 134.6 65.3121 134.52 65.1788 134.48C64.9654 134.44 64.8588 134.32 64.8588 134.12V133.26H68.0988V146.52C68.7121 146.64 69.0854 146.72 69.2188 146.76ZM78.8964 137.74C79.3497 137.74 79.7564 137.787 80.1164 137.88C80.5031 137.987 80.8497 138.133 81.1564 138.32H83.9164V138.98C83.9164 139.193 83.7764 139.333 83.4964 139.4L82.3564 139.56C82.5697 139.947 82.6764 140.427 82.6764 141C82.6764 141.52 82.5831 141.967 82.3964 142.34C82.1831 142.767 81.9231 143.107 81.6164 143.36C81.2431 143.667 80.8431 143.893 80.4164 144.04C79.9897 144.187 79.4831 144.26 78.8964 144.26C78.4164 144.26 77.9697 144.2 77.5564 144.08C77.3697 144.187 77.2097 144.333 77.0764 144.52C76.9697 144.667 76.9164 144.813 76.9164 144.96C76.9164 145.213 77.0097 145.393 77.1964 145.5C77.4231 145.633 77.6831 145.72 77.9764 145.76C78.4031 145.813 78.7697 145.84 79.0764 145.84C79.3431 145.84 79.7564 145.867 80.3164 145.92C80.4231 145.933 80.6031 145.953 80.8564 145.98C81.1231 145.993 81.3564 146.02 81.5564 146.06C81.9831 146.14 82.3497 146.26 82.6564 146.42C82.9497 146.567 83.2097 146.8 83.4364 147.12C83.6231 147.387 83.7164 147.76 83.7164 148.24C83.7164 148.707 83.6097 149.133 83.3964 149.52C83.1964 149.893 82.8764 150.253 82.4364 150.6C82.0497 150.907 81.5564 151.16 80.9564 151.36C80.3964 151.547 79.7297 151.64 78.9564 151.64C78.1564 151.64 77.5031 151.567 76.9964 151.42C76.4364 151.26 75.9764 151.06 75.6164 150.82C75.2564 150.58 74.9831 150.293 74.7964 149.96C74.6097 149.627 74.5164 149.293 74.5164 148.96C74.5164 148.467 74.6764 148.04 74.9964 147.68C75.3164 147.32 75.7564 147.04 76.3164 146.84C76.0364 146.72 75.8097 146.54 75.6364 146.3C75.4631 146.06 75.3764 145.76 75.3764 145.4C75.3764 145.32 75.4031 145.173 75.4564 144.96C75.4964 144.8 75.5764 144.64 75.6964 144.48C75.8031 144.333 75.9431 144.187 76.1164 144.04C76.1697 143.987 76.3564 143.867 76.6764 143.68C76.1697 143.4 75.7764 143.027 75.4964 142.56C75.2164 142.093 75.0764 141.553 75.0764 140.94C75.0764 140.42 75.1697 139.973 75.3564 139.6C75.5564 139.187 75.8231 138.847 76.1564 138.58C76.4897 138.3 76.9031 138.08 77.3964 137.92C77.8364 137.773 78.3497 137.7 78.9364 137.7L78.8964 137.74ZM78.9164 143.12C79.2631 143.12 79.5831 143.067 79.8764 142.96C80.1297 142.867 80.3631 142.727 80.5764 142.54C80.7631 142.367 80.9031 142.147 80.9964 141.88C81.0897 141.6 81.1364 141.327 81.1364 141.06C81.1364 140.433 80.9431 139.94 80.5564 139.58C80.1831 139.22 79.6364 139.04 78.9164 139.04C78.2097 139.04 77.6631 139.22 77.2764 139.58C76.9031 139.94 76.7164 140.433 76.7164 141.06C76.7164 141.353 76.7697 141.627 76.8764 141.88C76.9964 142.16 77.1364 142.373 77.2964 142.52C77.5097 142.707 77.7431 142.847 77.9964 142.94C78.2631 143.033 78.5697 143.08 78.9164 143.08V143.12ZM82.0764 148.6C82.0764 148.347 82.0097 148.147 81.8764 148C81.7431 147.84 81.5497 147.72 81.2964 147.64C81.0431 147.56 80.7697 147.5 80.4764 147.46C80.0497 147.407 79.7164 147.373 79.4764 147.36L78.4164 147.32C78.3497 147.32 78.0097 147.28 77.3964 147.2C77.0097 147.387 76.6964 147.607 76.4564 147.86C76.2164 148.127 76.0964 148.44 76.0964 148.8C76.0964 149.027 76.1564 149.24 76.2764 149.44C76.3964 149.627 76.5764 149.793 76.8164 149.94C77.0697 150.087 77.3697 150.2 77.7164 150.28C78.0764 150.36 78.5031 150.4 78.9964 150.4C79.4097 150.4 79.8364 150.353 80.2764 150.26C80.6231 150.193 80.9431 150.067 81.2364 149.88C81.5031 149.72 81.7031 149.533 81.8364 149.32C81.9831 149.093 82.0564 148.853 82.0564 148.6H82.0764ZM86.5331 135.58C86.4265 135.473 86.3331 135.34 86.2531 135.18C86.1865 135.047 86.1531 134.887 86.1531 134.7C86.1531 134.5 86.1865 134.333 86.2531 134.2C86.3465 134.013 86.4398 133.873 86.5331 133.78C86.6398 133.673 86.7731 133.58 86.9331 133.5C87.0665 133.433 87.2265 133.4 87.4131 133.4C87.5998 133.4 87.7598 133.433 87.8931 133.5C88.0531 133.58 88.1865 133.673 88.2931 133.78C88.3865 133.873 88.4798 134.013 88.5731 134.2C88.6531 134.36 88.6931 134.527 88.6931 134.7C88.6931 134.86 88.6531 135.02 88.5731 135.18C88.4931 135.34 88.3998 135.473 88.2931 135.58C88.1865 135.687 88.0531 135.78 87.8931 135.86C87.7598 135.927 87.5998 135.96 87.4131 135.96C87.2265 135.96 87.0665 135.927 86.9331 135.86C86.7731 135.78 86.6398 135.687 86.5331 135.58ZM89.4331 146.76C89.5265 146.773 89.5998 146.82 89.6531 146.9C89.7065 146.967 89.7331 147.047 89.7331 147.14V148H85.0731V147.14C85.0731 147.047 85.0998 146.967 85.1531 146.9C85.2065 146.82 85.2798 146.773 85.3731 146.76L86.5331 146.54V139.32L85.3731 139.1C85.2798 139.087 85.2065 139.047 85.1531 138.98C85.0998 138.9 85.0731 138.813 85.0731 138.72V137.88H88.2931V146.54L89.4331 146.76ZM101.794 138.76C101.794 138.96 101.694 139.08 101.494 139.12C101.454 139.12 101.394 139.133 101.314 139.16C101.248 139.173 101.161 139.187 101.054 139.2L100.514 139.32L96.9744 148.02H95.3544L91.8144 139.32C91.681 139.28 91.501 139.24 91.2744 139.2L90.8344 139.12C90.6344 139.08 90.5344 138.953 90.5344 138.74V137.88H95.0744V138.74C95.0744 138.953 94.9744 139.08 94.7744 139.12C94.681 139.147 94.541 139.173 94.3544 139.2C94.1677 139.227 93.941 139.267 93.6744 139.32L95.8144 144.76C95.921 145.04 96.041 145.52 96.1744 146.2C96.361 145.453 96.4944 144.973 96.5744 144.76L98.7344 139.32L97.5944 139.1C97.3944 139.06 97.2944 138.933 97.2944 138.72V137.88H101.794V138.76ZM106.761 137.72C107.348 137.72 107.901 137.82 108.421 138.02C108.954 138.22 109.394 138.507 109.741 138.88C110.141 139.307 110.434 139.78 110.621 140.3C110.834 140.9 110.941 141.54 110.941 142.22C110.941 142.527 110.914 142.713 110.861 142.78C110.794 142.873 110.674 142.92 110.501 142.92H103.781C103.781 143.56 103.861 144.12 104.021 144.6C104.154 145.013 104.381 145.4 104.701 145.76C104.994 146.093 105.328 146.333 105.701 146.48C106.101 146.64 106.528 146.72 106.981 146.72C107.461 146.72 107.848 146.673 108.141 146.58C108.421 146.487 108.701 146.373 108.981 146.24C109.274 146.093 109.474 145.987 109.581 145.92C109.754 145.813 109.888 145.76 109.981 145.76C110.128 145.76 110.241 145.82 110.321 145.94L110.821 146.6C110.634 146.84 110.368 147.067 110.021 147.28C109.621 147.533 109.294 147.7 109.041 147.78C108.641 147.913 108.281 148.007 107.961 148.06C107.561 148.127 107.194 148.16 106.861 148.16C106.168 148.16 105.521 148.04 104.921 147.8C104.348 147.573 103.834 147.22 103.381 146.74C102.954 146.3 102.621 145.733 102.381 145.04C102.141 144.36 102.021 143.587 102.021 142.72C102.021 142.027 102.134 141.373 102.361 140.76C102.588 140.133 102.901 139.6 103.301 139.16C103.714 138.707 104.214 138.353 104.801 138.1C105.388 137.847 106.041 137.72 106.761 137.72ZM106.801 139.02C105.934 139.02 105.261 139.267 104.781 139.76C104.288 140.28 103.981 140.973 103.861 141.84H109.361C109.361 141.427 109.301 141.053 109.181 140.72C109.034 140.307 108.874 140.007 108.701 139.82C108.474 139.58 108.201 139.387 107.881 139.24C107.574 139.107 107.208 139.04 106.781 139.04L106.801 139.02ZM127.282 138.72C127.282 138.92 127.182 139.04 126.982 139.08C126.928 139.08 126.848 139.093 126.742 139.12C126.648 139.147 126.548 139.173 126.442 139.2L125.942 139.3L120.922 150.98C120.868 151.113 120.782 151.22 120.662 151.3C120.555 151.38 120.428 151.42 120.282 151.42H118.962L120.802 147.4L117.242 139.28C116.842 139.213 116.542 139.147 116.342 139.08C116.142 139.04 116.042 138.92 116.042 138.72V137.86H120.582V138.72C120.582 138.92 120.482 139.04 120.282 139.08C120.148 139.12 119.775 139.2 119.162 139.32L121.422 144.6C121.488 144.747 121.542 144.92 121.582 145.12C121.635 145.32 121.668 145.453 121.682 145.52C121.775 145.2 121.882 144.893 122.002 144.6L124.182 139.32C124.182 139.32 123.815 139.247 123.082 139.1C122.895 139.06 122.802 138.933 122.802 138.72V137.88H126.562L127.282 137.86V138.72ZM132.702 137.72C133.435 137.72 134.102 137.84 134.702 138.08C135.289 138.32 135.802 138.667 136.242 139.12C136.655 139.547 136.975 140.093 137.202 140.76C137.429 141.413 137.542 142.133 137.542 142.92C137.542 143.707 137.429 144.427 137.202 145.08C136.975 145.747 136.655 146.293 136.242 146.72C135.802 147.173 135.289 147.52 134.702 147.76C134.102 148 133.435 148.12 132.702 148.12C131.969 148.12 131.302 148 130.702 147.76C130.115 147.52 129.602 147.173 129.162 146.72C128.762 146.307 128.435 145.76 128.182 145.08C127.969 144.507 127.862 143.787 127.862 142.92C127.862 142.053 127.969 141.333 128.182 140.76C128.435 140.08 128.762 139.533 129.162 139.12C129.602 138.667 130.115 138.32 130.702 138.08C131.302 137.84 131.969 137.72 132.702 137.72ZM132.702 146.76C133.729 146.76 134.475 146.427 134.942 145.76C135.435 145.067 135.682 144.127 135.682 142.94C135.682 141.753 135.435 140.813 134.942 140.12C134.475 139.453 133.729 139.12 132.702 139.12C132.182 139.12 131.742 139.2 131.382 139.36C131.035 139.52 130.729 139.773 130.462 140.12C130.209 140.467 130.022 140.867 129.902 141.32C129.769 141.853 129.702 142.4 129.702 142.96C129.702 143.493 129.769 144.027 129.902 144.56C130.022 145.013 130.209 145.413 130.462 145.76C130.689 146.067 130.995 146.307 131.382 146.48C131.809 146.667 132.249 146.76 132.702 146.76ZM143.628 146.76C144.628 146.76 145.542 146.293 146.368 145.36V139.36C146.248 139.32 145.868 139.24 145.228 139.12C145.028 139.08 144.928 138.953 144.928 138.74V137.88H148.148V146.56C148.788 146.68 149.168 146.76 149.288 146.8C149.488 146.84 149.588 146.96 149.588 147.16V148.02H147.088C146.848 148.02 146.688 147.893 146.608 147.64L146.468 146.56C145.508 147.64 144.388 148.18 143.108 148.18C142.028 148.18 141.188 147.827 140.588 147.12C140.002 146.413 139.708 145.487 139.708 144.34V139.34C139.095 139.22 138.722 139.14 138.588 139.1C138.375 139.06 138.268 138.933 138.268 138.72V137.88H141.508V144.32C141.508 145.12 141.682 145.72 142.028 146.12C142.388 146.533 142.922 146.74 143.628 146.74V146.76ZM158.234 139.94C158.981 138.433 160.007 137.68 161.314 137.68C161.834 137.68 162.294 137.8 162.694 138.04L162.474 139.38C162.434 139.553 162.347 139.64 162.214 139.64C162.121 139.64 161.961 139.607 161.734 139.54C161.507 139.473 161.234 139.44 160.914 139.44C159.741 139.44 158.874 140.147 158.314 141.56V146.56L159.454 146.78C159.654 146.82 159.754 146.947 159.754 147.16V148H155.094V147.16C155.094 146.947 155.194 146.82 155.394 146.78L156.534 146.56V139.34C155.894 139.22 155.514 139.14 155.394 139.1C155.194 139.06 155.094 138.933 155.094 138.72V137.88H157.554C157.741 137.88 157.867 137.913 157.934 137.98C158.001 138.047 158.054 138.173 158.094 138.36L158.214 139.94H158.234ZM167.835 137.72C168.422 137.72 168.975 137.82 169.495 138.02C170.029 138.22 170.469 138.507 170.815 138.88C171.215 139.307 171.509 139.78 171.695 140.3C171.909 140.9 172.015 141.54 172.015 142.22C172.015 142.527 171.989 142.713 171.935 142.78C171.869 142.873 171.749 142.92 171.575 142.92H164.855C164.855 143.56 164.935 144.12 165.095 144.6C165.229 145.013 165.455 145.4 165.775 145.76C166.069 146.093 166.402 146.333 166.775 146.48C167.175 146.64 167.602 146.72 168.055 146.72C168.535 146.72 168.922 146.673 169.215 146.58C169.495 146.487 169.775 146.373 170.055 146.24C170.349 146.093 170.549 145.987 170.655 145.92C170.829 145.813 170.962 145.76 171.055 145.76C171.202 145.76 171.315 145.82 171.395 145.94L171.895 146.6C171.709 146.84 171.442 147.067 171.095 147.28C170.695 147.533 170.369 147.7 170.115 147.78C169.715 147.913 169.355 148.007 169.035 148.06C168.635 148.127 168.269 148.16 167.935 148.16C167.242 148.16 166.595 148.04 165.995 147.8C165.422 147.573 164.909 147.22 164.455 146.74C164.029 146.3 163.695 145.733 163.455 145.04C163.215 144.36 163.095 143.587 163.095 142.72C163.095 142.027 163.209 141.373 163.435 140.76C163.662 140.133 163.975 139.6 164.375 139.16C164.789 138.707 165.289 138.353 165.875 138.1C166.462 137.847 167.115 137.72 167.835 137.72ZM167.875 139.02C167.009 139.02 166.335 139.267 165.855 139.76C165.362 140.28 165.055 140.973 164.935 141.84H170.435C170.435 141.427 170.375 141.053 170.255 140.72C170.109 140.307 169.949 140.007 169.775 139.82C169.549 139.58 169.275 139.387 168.955 139.24C168.649 139.107 168.282 139.04 167.855 139.04L167.875 139.02ZM181.706 146.58C180.866 147.62 179.613 148.14 177.946 148.14C176.666 148.14 175.613 147.68 174.786 146.76C173.92 145.787 173.486 144.507 173.486 142.92C173.486 141.373 173.893 140.127 174.706 139.18C175.56 138.207 176.746 137.72 178.266 137.72C179.026 137.72 180.026 137.96 181.266 138.44V141.08H180.466C180.28 141.08 180.166 140.987 180.126 140.8C180.113 140.76 180.086 140.507 180.046 140.04L179.986 139.38C179.84 139.327 179.693 139.287 179.546 139.26C179.413 139.233 179.32 139.213 179.266 139.2C178.906 139.147 178.533 139.12 178.146 139.12C177.8 139.12 177.433 139.207 177.046 139.38C176.686 139.54 176.373 139.787 176.106 140.12C175.6 140.787 175.346 141.72 175.346 142.92C175.346 144.12 175.613 145.067 176.146 145.76C176.666 146.427 177.38 146.76 178.286 146.76C179.126 146.76 179.866 146.48 180.506 145.92C180.613 145.813 180.746 145.76 180.906 145.76C181.053 145.76 181.16 145.813 181.226 145.92L181.706 146.58ZM187.917 137.72C188.65 137.72 189.317 137.84 189.917 138.08C190.503 138.32 191.017 138.667 191.457 139.12C191.87 139.547 192.19 140.093 192.417 140.76C192.643 141.413 192.757 142.133 192.757 142.92C192.757 143.707 192.643 144.427 192.417 145.08C192.19 145.747 191.87 146.293 191.457 146.72C191.017 147.173 190.503 147.52 189.917 147.76C189.317 148 188.65 148.12 187.917 148.12C187.183 148.12 186.517 148 185.917 147.76C185.33 147.52 184.817 147.173 184.377 146.72C183.977 146.307 183.65 145.76 183.397 145.08C183.183 144.507 183.077 143.787 183.077 142.92C183.077 142.053 183.183 141.333 183.397 140.76C183.65 140.08 183.977 139.533 184.377 139.12C184.817 138.667 185.33 138.32 185.917 138.08C186.517 137.84 187.183 137.72 187.917 137.72ZM187.917 146.76C188.943 146.76 189.69 146.427 190.157 145.76C190.65 145.067 190.897 144.127 190.897 142.94C190.897 141.753 190.65 140.813 190.157 140.12C189.69 139.453 188.943 139.12 187.917 139.12C187.397 139.12 186.957 139.2 186.597 139.36C186.25 139.52 185.943 139.773 185.677 140.12C185.423 140.467 185.237 140.867 185.117 141.32C184.983 141.853 184.917 142.4 184.917 142.96C184.917 143.493 184.983 144.027 185.117 144.56C185.237 145.013 185.423 145.413 185.677 145.76C185.903 146.067 186.21 146.307 186.597 146.48C187.023 146.667 187.463 146.76 187.917 146.76ZM196.983 139.3C197.836 138.247 198.79 137.72 199.843 137.72C200.536 137.72 201.096 137.913 201.523 138.3C201.936 138.673 202.243 139.187 202.443 139.84C202.736 139.12 203.176 138.587 203.763 138.24C204.376 137.893 204.963 137.72 205.523 137.72C206.11 137.72 206.63 137.807 207.083 137.98C207.51 138.14 207.87 138.387 208.163 138.72C208.75 139.387 209.043 140.333 209.043 141.56V146.56C209.71 146.68 210.096 146.76 210.203 146.8C210.403 146.84 210.503 146.96 210.503 147.16V148.04H207.283V141.58C207.283 140.767 207.11 140.167 206.763 139.78C206.39 139.367 205.883 139.16 205.243 139.16C204.63 139.16 204.123 139.36 203.723 139.76C203.283 140.2 203.063 140.8 203.063 141.56V146.56C203.116 146.573 203.23 146.6 203.403 146.64C203.576 146.68 203.843 146.733 204.203 146.8C204.403 146.84 204.503 146.96 204.503 147.16V148.02H201.283V141.56C201.283 139.96 200.643 139.16 199.363 139.16C198.536 139.16 197.783 139.6 197.103 140.48V146.56L197.643 146.66L198.243 146.78C198.443 146.82 198.543 146.947 198.543 147.16V148H193.883V147.16C193.883 146.947 193.976 146.82 194.163 146.78L195.323 146.56V139.34C194.656 139.22 194.27 139.14 194.163 139.1C193.976 139.06 193.883 138.933 193.883 138.72V137.88H196.363C196.603 137.88 196.763 138 196.843 138.24L196.983 139.28V139.3ZM214.776 139.3C215.629 138.247 216.583 137.72 217.636 137.72C218.329 137.72 218.889 137.913 219.316 138.3C219.729 138.673 220.036 139.187 220.236 139.84C220.529 139.12 220.969 138.587 221.556 138.24C222.169 137.893 222.756 137.72 223.316 137.72C223.903 137.72 224.423 137.807 224.876 137.98C225.303 138.14 225.663 138.387 225.956 138.72C226.543 139.387 226.836 140.333 226.836 141.56V146.56C227.503 146.68 227.889 146.76 227.996 146.8C228.196 146.84 228.296 146.96 228.296 147.16V148.04H225.076V141.58C225.076 140.767 224.903 140.167 224.556 139.78C224.183 139.367 223.676 139.16 223.036 139.16C222.423 139.16 221.916 139.36 221.516 139.76C221.076 140.2 220.856 140.8 220.856 141.56V146.56C220.909 146.573 221.023 146.6 221.196 146.64C221.369 146.68 221.636 146.733 221.996 146.8C222.196 146.84 222.296 146.96 222.296 147.16V148.02H219.076V141.56C219.076 139.96 218.436 139.16 217.156 139.16C216.329 139.16 215.576 139.6 214.896 140.48V146.56L215.436 146.66L216.036 146.78C216.236 146.82 216.336 146.947 216.336 147.16V148H211.676V147.16C211.676 146.947 211.769 146.82 211.956 146.78L213.116 146.56V139.34C212.449 139.22 212.063 139.14 211.956 139.1C211.769 139.06 211.676 138.933 211.676 138.72V137.88H214.156C214.396 137.88 214.556 138 214.636 138.24L214.776 139.28V139.3ZM233.929 137.72C234.516 137.72 235.069 137.82 235.589 138.02C236.122 138.22 236.562 138.507 236.909 138.88C237.309 139.307 237.602 139.78 237.789 140.3C238.002 140.9 238.109 141.54 238.109 142.22C238.109 142.527 238.082 142.713 238.029 142.78C237.962 142.873 237.842 142.92 237.669 142.92H230.949C230.949 143.56 231.029 144.12 231.189 144.6C231.322 145.013 231.549 145.4 231.869 145.76C232.162 146.093 232.496 146.333 232.869 146.48C233.269 146.64 233.696 146.72 234.149 146.72C234.629 146.72 235.016 146.673 235.309 146.58C235.589 146.487 235.869 146.373 236.149 146.24C236.442 146.093 236.642 145.987 236.749 145.92C236.922 145.813 237.056 145.76 237.149 145.76C237.296 145.76 237.409 145.82 237.489 145.94L237.989 146.6C237.802 146.84 237.536 147.067 237.189 147.28C236.789 147.533 236.462 147.7 236.209 147.78C235.809 147.913 235.449 148.007 235.129 148.06C234.729 148.127 234.362 148.16 234.029 148.16C233.336 148.16 232.689 148.04 232.089 147.8C231.516 147.573 231.002 147.22 230.549 146.74C230.122 146.3 229.789 145.733 229.549 145.04C229.309 144.36 229.189 143.587 229.189 142.72C229.189 142.027 229.302 141.373 229.529 140.76C229.756 140.133 230.069 139.6 230.469 139.16C230.882 138.707 231.382 138.353 231.969 138.1C232.556 137.847 233.209 137.72 233.929 137.72ZM233.969 139.02C233.102 139.02 232.429 139.267 231.949 139.76C231.456 140.28 231.149 140.973 231.029 141.84H236.529C236.529 141.427 236.469 141.053 236.349 140.72C236.202 140.307 236.042 140.007 235.869 139.82C235.642 139.58 235.369 139.387 235.049 139.24C234.742 139.107 234.376 139.04 233.949 139.04L233.969 139.02ZM242.433 139.32C243.433 138.24 244.553 137.7 245.793 137.7C246.886 137.7 247.726 138.053 248.313 138.76C248.886 139.453 249.173 140.38 249.173 141.54V146.52C249.813 146.64 250.193 146.72 250.313 146.76C250.526 146.8 250.633 146.927 250.633 147.14V148H247.393V141.56C247.393 139.933 246.686 139.12 245.273 139.12C244.273 139.12 243.353 139.593 242.513 140.54V146.54C242.566 146.54 242.953 146.62 243.673 146.78C243.873 146.82 243.973 146.947 243.973 147.16V148H239.313V147.16C239.313 146.947 239.406 146.82 239.593 146.78L240.753 146.56V139.34C240.086 139.22 239.699 139.14 239.593 139.1C239.406 139.06 239.313 138.933 239.313 138.72V137.88H241.793C242.033 137.88 242.193 138 242.273 138.24L242.433 139.34V139.32ZM255.973 137.68C257.093 137.68 258.013 138.08 258.733 138.88V134.72L257.393 134.48C257.193 134.44 257.093 134.32 257.093 134.12V133.24H260.493V146.52C261.159 146.64 261.546 146.72 261.653 146.76C261.839 146.8 261.933 146.92 261.933 147.12V148H259.453C259.213 148 259.053 147.873 258.973 147.62L258.813 146.4C257.866 147.547 256.733 148.12 255.413 148.12C254.226 148.12 253.293 147.68 252.613 146.8C251.919 145.88 251.573 144.6 251.573 142.96C251.573 141.427 251.966 140.173 252.753 139.2C253.566 138.187 254.639 137.68 255.973 137.68ZM256.013 146.7C257.066 146.7 257.973 146.187 258.733 145.16V140.28C258.133 139.48 257.353 139.08 256.393 139.08C255.419 139.08 254.679 139.413 254.173 140.08C253.666 140.747 253.413 141.707 253.413 142.96C253.413 144.867 253.906 146.04 254.893 146.48C255.199 146.613 255.566 146.68 255.993 146.68L256.013 146.7ZM271.862 146.72C271.955 146.733 272.029 146.78 272.082 146.86C272.135 146.927 272.162 147.007 272.162 147.1V147.96H270.082C269.962 147.96 269.822 147.933 269.662 147.88C269.569 147.853 269.502 147.747 269.462 147.56L269.262 146.6L268.462 147.26C268.235 147.447 267.969 147.607 267.662 147.74C267.369 147.873 267.075 147.973 266.782 148.04C266.515 148.107 266.155 148.14 265.702 148.14C265.329 148.14 264.969 148.08 264.622 147.96C264.209 147.813 263.909 147.653 263.722 147.48C263.482 147.267 263.282 146.987 263.122 146.64C262.975 146.333 262.902 145.933 262.902 145.44C262.902 145.013 263.009 144.627 263.222 144.28C263.462 143.893 263.822 143.56 264.302 143.28C264.835 142.973 265.475 142.733 266.222 142.56C266.995 142.387 267.969 142.3 269.142 142.3V141.52C269.142 140.733 268.969 140.133 268.622 139.72C268.275 139.307 267.775 139.1 267.122 139.1C266.695 139.1 266.329 139.16 266.022 139.28C265.675 139.413 265.422 139.533 265.262 139.64C265.182 139.693 265.089 139.753 264.982 139.82C264.889 139.873 264.789 139.933 264.682 140C264.535 140.107 264.382 140.16 264.222 140.16C264.075 140.16 263.969 140.133 263.902 140.08C263.822 140.013 263.755 139.933 263.702 139.84L263.382 139.28C263.902 138.773 264.502 138.373 265.182 138.08C265.795 137.813 266.515 137.68 267.342 137.68C267.942 137.68 268.449 137.773 268.862 137.96C269.315 138.16 269.682 138.413 269.962 138.72C270.255 139.027 270.482 139.427 270.642 139.92C270.789 140.36 270.862 140.88 270.862 141.48V146.54C271.502 146.673 271.835 146.747 271.862 146.76V146.72ZM269.102 143.44C268.235 143.44 267.542 143.487 267.022 143.58C266.515 143.673 266.049 143.813 265.622 144C265.249 144.173 264.982 144.373 264.822 144.6C264.662 144.84 264.582 145.093 264.582 145.36C264.582 145.573 264.629 145.8 264.722 146.04C264.802 146.24 264.922 146.4 265.082 146.52C265.242 146.64 265.415 146.727 265.602 146.78C265.829 146.847 266.049 146.88 266.262 146.88C266.529 146.88 266.809 146.847 267.102 146.78C267.369 146.713 267.615 146.627 267.842 146.52C268.042 146.427 268.262 146.28 268.502 146.08C268.635 145.973 268.835 145.787 269.102 145.52V143.44ZM276.41 148.16C275.637 148.16 275.024 147.933 274.57 147.48C274.144 147.053 273.93 146.413 273.93 145.56V139.36H272.71C272.59 139.36 272.497 139.333 272.43 139.28C272.364 139.227 272.33 139.127 272.33 138.98V138.28L273.99 138.06L274.39 134.92C274.39 134.813 274.43 134.733 274.51 134.68C274.577 134.627 274.67 134.6 274.79 134.6H275.69V138.08H278.59V139.38H275.69V145.46C275.69 145.9 275.79 146.22 275.99 146.42C276.19 146.62 276.464 146.72 276.81 146.72C276.957 146.72 277.124 146.693 277.31 146.64C277.43 146.6 277.55 146.547 277.67 146.48C277.71 146.453 277.75 146.427 277.79 146.4C277.83 146.373 277.87 146.347 277.91 146.32C278.017 146.267 278.084 146.24 278.11 146.24C278.204 146.24 278.284 146.293 278.35 146.4L278.87 147.24C278.51 147.547 278.137 147.773 277.75 147.92C277.31 148.08 276.864 148.16 276.41 148.16ZM281.416 135.58C281.309 135.473 281.216 135.34 281.136 135.18C281.069 135.047 281.036 134.887 281.036 134.7C281.036 134.5 281.069 134.333 281.136 134.2C281.229 134.013 281.323 133.873 281.416 133.78C281.523 133.673 281.656 133.58 281.816 133.5C281.949 133.433 282.109 133.4 282.296 133.4C282.483 133.4 282.643 133.433 282.776 133.5C282.936 133.58 283.069 133.673 283.176 133.78C283.269 133.873 283.363 134.013 283.456 134.2C283.536 134.36 283.576 134.527 283.576 134.7C283.576 134.86 283.536 135.02 283.456 135.18C283.376 135.34 283.283 135.473 283.176 135.58C283.069 135.687 282.936 135.78 282.776 135.86C282.643 135.927 282.483 135.96 282.296 135.96C282.109 135.96 281.949 135.927 281.816 135.86C281.656 135.78 281.523 135.687 281.416 135.58ZM284.316 146.76C284.409 146.773 284.483 146.82 284.536 146.9C284.589 146.967 284.616 147.047 284.616 147.14V148H279.956V147.14C279.956 147.047 279.983 146.967 280.036 146.9C280.089 146.82 280.163 146.773 280.256 146.76L281.416 146.54V139.32L280.256 139.1C280.163 139.087 280.089 139.047 280.036 138.98C279.983 138.9 279.956 138.813 279.956 138.72V137.88H283.176V146.54L284.316 146.76ZM290.397 137.72C291.131 137.72 291.797 137.84 292.397 138.08C292.984 138.32 293.497 138.667 293.937 139.12C294.351 139.547 294.671 140.093 294.897 140.76C295.124 141.413 295.237 142.133 295.237 142.92C295.237 143.707 295.124 144.427 294.897 145.08C294.671 145.747 294.351 146.293 293.937 146.72C293.497 147.173 292.984 147.52 292.397 147.76C291.797 148 291.131 148.12 290.397 148.12C289.664 148.12 288.997 148 288.397 147.76C287.811 147.52 287.297 147.173 286.857 146.72C286.457 146.307 286.131 145.76 285.877 145.08C285.664 144.507 285.557 143.787 285.557 142.92C285.557 142.053 285.664 141.333 285.877 140.76C286.131 140.08 286.457 139.533 286.857 139.12C287.297 138.667 287.811 138.32 288.397 138.08C288.997 137.84 289.664 137.72 290.397 137.72ZM290.397 146.76C291.424 146.76 292.171 146.427 292.637 145.76C293.131 145.067 293.377 144.127 293.377 142.94C293.377 141.753 293.131 140.813 292.637 140.12C292.171 139.453 291.424 139.12 290.397 139.12C289.877 139.12 289.437 139.2 289.077 139.36C288.731 139.52 288.424 139.773 288.157 140.12C287.904 140.467 287.717 140.867 287.597 141.32C287.464 141.853 287.397 142.4 287.397 142.96C287.397 143.493 287.464 144.027 287.597 144.56C287.717 145.013 287.904 145.413 288.157 145.76C288.384 146.067 288.691 146.307 289.077 146.48C289.504 146.667 289.944 146.76 290.397 146.76ZM299.484 139.32C300.484 138.24 301.604 137.7 302.844 137.7C303.937 137.7 304.777 138.053 305.364 138.76C305.937 139.453 306.224 140.38 306.224 141.54V146.52C306.864 146.64 307.244 146.72 307.364 146.76C307.577 146.8 307.684 146.927 307.684 147.14V148H304.444V141.56C304.444 139.933 303.737 139.12 302.324 139.12C301.324 139.12 300.404 139.593 299.564 140.54V146.54C299.617 146.54 300.004 146.62 300.724 146.78C300.924 146.82 301.024 146.947 301.024 147.16V148H296.364V147.16C296.364 146.947 296.457 146.82 296.644 146.78L297.804 146.56V139.34C297.137 139.22 296.75 139.14 296.644 139.1C296.457 139.06 296.364 138.933 296.364 138.72V137.88H298.844C299.084 137.88 299.244 138 299.324 138.24L299.484 139.34V139.32ZM312.804 137.72C313.497 137.72 314.377 137.9 315.444 138.26V140.86H314.664C314.477 140.86 314.364 140.767 314.324 140.58L314.204 139.26C313.577 139.113 313.057 139.04 312.644 139.04H312.624C312.077 139.04 311.617 139.187 311.244 139.48C310.884 139.76 310.704 140.067 310.704 140.4C310.704 140.747 310.784 141 310.944 141.16C311.21 141.467 311.597 141.7 312.104 141.86L312.704 142.04C312.81 142.067 313.024 142.133 313.344 142.24L314.304 142.6C314.57 142.693 314.85 142.867 315.144 143.12C315.69 143.547 315.964 144.133 315.964 144.88C315.964 145.853 315.637 146.627 314.984 147.2C314.277 147.827 313.384 148.14 312.304 148.14C311.197 148.14 310.104 147.96 309.024 147.6V144.96H309.744C309.904 144.96 310.004 145.04 310.044 145.2L310.164 146.48C310.697 146.747 311.384 146.88 312.224 146.88C312.864 146.88 313.384 146.713 313.784 146.38C314.13 146.073 314.304 145.733 314.304 145.36C314.304 144.973 314.224 144.693 314.064 144.52C313.877 144.307 313.677 144.147 313.464 144.04C313.17 143.893 312.89 143.787 312.624 143.72C311.637 143.4 311.017 143.187 310.764 143.08C310.444 142.933 310.144 142.747 309.864 142.52C309.304 142.053 309.024 141.427 309.024 140.64C309.024 139.84 309.344 139.16 309.984 138.6C310.65 138.013 311.59 137.72 312.804 137.72Z" fill="#0D606F"/>
<rect x="109" width="100" height="100" rx="16" fill="#F2785C"/>
<path d="M182.931 70.9545C182.931 71.497 182.717 72.0173 182.338 72.4009C181.959 72.7845 181.444 73 180.907 73H144.49C143.954 73 143.439 72.7845 143.06 72.4009C142.68 72.0173 142.467 71.497 142.467 70.9545C142.467 70.4121 142.68 69.8918 143.06 69.5082C143.439 69.1246 143.954 68.9091 144.49 68.9091H180.907C181.444 68.9091 181.959 69.1246 182.338 69.5082C182.717 69.8918 182.931 70.4121 182.931 70.9545ZM189 50.5V56.6364C189 57.1789 188.787 57.6991 188.407 58.0827C188.028 58.4663 187.513 58.6818 186.977 58.6818H142.417C140.24 58.6894 138.119 57.9834 136.373 56.6696C134.627 55.3558 133.349 53.5051 132.731 51.3949L129.165 39.4034C128.988 38.7898 128.953 38.1431 129.062 37.5136C129.172 36.884 129.423 36.2884 129.797 35.7728C130.179 35.2642 130.673 34.8518 131.239 34.5679C131.805 34.2841 132.428 34.1364 133.06 34.1364H137.409C137.705 34.137 137.996 34.2038 138.263 34.332C138.53 34.4603 138.765 34.6467 138.952 34.8779L143.403 40.2727H147.753L145.477 33.3949C145.272 32.7789 145.215 32.1225 145.311 31.4799C145.407 30.8373 145.653 30.2271 146.029 29.6998C146.405 29.1725 146.899 28.7432 147.472 28.4477C148.044 28.1521 148.678 27.9986 149.321 28H153.595C153.876 27.9985 154.154 28.057 154.411 28.1715C154.668 28.2861 154.898 28.4542 155.087 28.6648L165.607 40.2727H178.884C181.567 40.2727 184.14 41.3503 186.037 43.2682C187.934 45.1862 189 47.7876 189 50.5ZM184.954 50.5C184.947 48.8746 184.305 47.3177 183.169 46.1684C182.032 45.0191 180.492 44.3704 178.884 44.3637H164.722C164.441 44.3651 164.163 44.3067 163.906 44.1922C163.649 44.0776 163.418 43.9095 163.23 43.6989L152.71 32.0909H149.321L152.482 41.679C152.581 41.9865 152.607 42.3132 152.559 42.6328C152.511 42.9525 152.389 43.2563 152.204 43.5199C152.017 43.7837 151.77 43.9981 151.484 44.1449C151.198 44.2918 150.881 44.3668 150.56 44.3637H142.467C142.172 44.363 141.88 44.2962 141.614 44.168C141.347 44.0398 141.112 43.8534 140.925 43.6222L136.474 38.2273H133.034L136.6 50.2188C136.972 51.4853 137.74 52.5959 138.788 53.3841C139.837 54.1723 141.11 54.5958 142.417 54.5909H184.954V50.5Z" fill="white"/>
</svg>
